<svg xmlns="http://www.w3.org/2000/svg" width="960" height="540" viewBox="0 0 960 540">
  <rect width="960" height="540" fill="none"/>
  <g opacity="0.18" stroke="#dbe5dc" stroke-width="1">
    <line x1="0" y1="18" x2="960" y2="18"/>
    <line x1="0" y1="54" x2="960" y2="54"/>
    <line x1="0" y1="90" x2="960" y2="90"/>
    <line x1="0" y1="126" x2="960" y2="126"/>
    <line x1="0" y1="162" x2="960" y2="162"/>
    <line x1="0" y1="198" x2="960" y2="198"/>
    <line x1="0" y1="234" x2="960" y2="234"/>
    <line x1="0" y1="270" x2="960" y2="270"/>
    <line x1="0" y1="306" x2="960" y2="306"/>
    <line x1="0" y1="342" x2="960" y2="342"/>
    <line x1="0" y1="378" x2="960" y2="378"/>
    <line x1="0" y1="414" x2="960" y2="414"/>
    <line x1="0" y1="450" x2="960" y2="450"/>
    <line x1="0" y1="486" x2="960" y2="486"/>
    <line x1="0" y1="522" x2="960" y2="522"/>
  </g>
  <g opacity="0.12" fill="#ffffff">
    <rect x="42" y="45" width="90" height="2"/>
    <rect x="280" y="110" width="160" height="2"/>
    <rect x="650" y="76" width="120" height="2"/>
    <rect x="180" y="310" width="220" height="2"/>
    <rect x="540" y="410" width="260" height="2"/>
    <rect x="70" y="470" width="140" height="2"/>
  </g>
</svg>
